<svg xmlns="http://www.w3.org/2000/svg" viewBox="0 0 240 240" role="img" aria-labelledby="title desc">
  <title id="title">Tymczasowy pomarańczowy stworek</title>
  <desc id="desc">Przyjazna postać testowa z dużymi uszami i zielonymi spodenkami.</desc>
  <defs>
    <radialGradient id="body" cx="38%" cy="28%" r="72%">
      <stop offset="0" stop-color="#ff9a3d"/>
      <stop offset=".58" stop-color="#ef6b22"/>
      <stop offset="1" stop-color="#bd4215"/>
    </radialGradient>
    <linearGradient id="shorts" x1="0" y1="0" x2="0" y2="1">
      <stop offset="0" stop-color="#2c9a55"/>
      <stop offset="1" stop-color="#146837"/>
    </linearGradient>
  </defs>
  <ellipse cx="120" cy="224" rx="68" ry="10" fill="#000" opacity=".18"/>
  <circle cx="55" cy="88" r="42" fill="url(#body)" stroke="#a83a13" stroke-width="5"/>
  <circle cx="185" cy="88" r="42" fill="url(#body)" stroke="#a83a13" stroke-width="5"/>
  <circle cx="120" cy="90" r="69" fill="url(#body)" stroke="#a83a13" stroke-width="5"/>
  <ellipse cx="120" cy="159" rx="55" ry="54" fill="url(#body)" stroke="#a83a13" stroke-width="5"/>
  <ellipse cx="94" cy="78" rx="16" ry="20" fill="#fff"/>
  <ellipse cx="146" cy="78" rx="16" ry="20" fill="#fff"/>
  <circle cx="99" cy="82" r="7" fill="#252525"/>
  <circle cx="141" cy="82" r="7" fill="#252525"/>
  <circle cx="101" cy="79" r="2" fill="#fff"/>
  <circle cx="143" cy="79" r="2" fill="#fff"/>
  <ellipse cx="120" cy="102" rx="24" ry="20" fill="#d94f19" stroke="#a83a13" stroke-width="4"/>
  <path d="M91 119c8 19 50 20 59 0" fill="none" stroke="#6e2512" stroke-width="7" stroke-linecap="round"/>
  <path d="M98 125c9 8 35 8 44 0" fill="#6e2512"/>
  <path d="M72 144c-23 10-31 34-20 48" fill="none" stroke="#d9571c" stroke-width="17" stroke-linecap="round"/>
  <path d="M168 144c23 10 31 34 20 48" fill="none" stroke="#d9571c" stroke-width="17" stroke-linecap="round"/>
  <path d="M79 163h82l-5 45H84z" fill="url(#shorts)" stroke="#0f512c" stroke-width="5"/>
  <path d="M120 166v39" stroke="#0f512c" stroke-width="4"/>
  <rect x="97" y="139" width="46" height="31" rx="8" fill="#fff7e9" stroke="#d0b891" stroke-width="3"/>
  <path d="M108 157l8-11 7 8 5-6 7 9z" fill="#2d8850"/>
  <text x="120" y="166" text-anchor="middle" font-family="Arial, sans-serif" font-size="8" font-weight="700" fill="#1d4e31">SZKLARSKA</text>
  <path d="M92 204c-16 3-21 22-6 26 14 4 28-2 29-17" fill="url(#body)" stroke="#a83a13" stroke-width="5"/>
  <path d="M148 204c16 3 21 22 6 26-14 4-28-2-29-17" fill="url(#body)" stroke="#a83a13" stroke-width="5"/>
</svg>
